<!-- Ñande ERP — Marca figurativa Ñ pixelada — Fondo transparente -->
<svg xmlns="http://www.w3.org/2000/svg" viewBox="0 0 400 400" width="400" height="400">
  <g transform="translate(108,70) scale(4)">
    <rect x="14" y="20" width="8" height="8" rx="1.5" fill="#4A7C59"/>
    <rect x="25" y="18" width="8" height="8" rx="1.5" fill="#4A7C59"/>
    <rect x="36" y="20" width="8" height="8" rx="1.5" fill="#4A7C59"/>
    <rect x="12" y="36" width="10" height="10" rx="1.5" fill="#5B2A86"/>
    <rect x="12" y="49" width="10" height="10" rx="1.5" fill="#5B2A86"/>
    <rect x="12" y="62" width="10" height="10" rx="1.5" fill="#5B2A86"/>
    <rect x="12" y="75" width="10" height="10" rx="1.5" fill="#5B2A86"/>
    <rect x="25" y="36" width="10" height="10" rx="1.5" fill="#5B2A86"/>
    <rect x="38" y="49" width="10" height="10" rx="1.5" fill="#5B2A86"/>
    <rect x="51" y="62" width="10" height="10" rx="1.5" fill="#5B2A86"/>
    <rect x="51" y="36" width="10" height="10" rx="1.5" fill="#5B2A86"/>
    <rect x="51" y="49" width="10" height="10" rx="1.5" fill="#5B2A86"/>
    <rect x="51" y="75" width="10" height="10" rx="1.5" fill="#5B2A86"/>
    <rect x="51" y="62" width="10" height="10" rx="1.5" fill="#5B2A86"/>
  </g>
</svg>
